# xmcd CD database file
#
# Track frame offsets:
#	150
#	27622
#	45230
#	79136
#	118352
#	139935
#	180918
#	203714
#	224208
#
# Disc length: 3239 seconds
#
# Revision: 3
# Processed by: cddbd v1.5.2PL0 Copyright (c) Steve Scherf et al.
# Submitted via: CDex 1.51
#
DISCID=850ca509
DTITLE=Ilan Chester - Bhakti
DYEAR=1900
DGENRE=New Age
TTITLE0=Sri Damodarastakam
TTITLE1=Parama Karuna
TTITLE2=Vibhavari-Sesa
TTITLE3=Sri-Sri Siksastaka
TTITLE4=Nama-Sankirtan
TTITLE5=Arunodaya-Kirtana
TTITLE6=Sri Krishna Caitana
TTITLE7=Ye Anilo Prema-Dhana
TTITLE8=Hare Krishna Maha Mantra
EXTD=
EXTT0=
EXTT1=
EXTT2=
EXTT3=
EXTT4=
EXTT5=
EXTT6=
EXTT7=
EXTT8=
PLAYORDER=
